<?xml version="1.0" encoding="UTF-8"?>
<svg width="591.58" height="236.63" version="1.1" viewBox="0 0 591.58 236.63" xml:space="preserve" xmlns="http://www.w3.org/2000/svg" xmlns:xlink="http://www.w3.org/1999/xlink"><defs><linearGradient id="linearGradient22544"><stop stop-color="#808080" offset="0"/><stop stop-color="#808080" stop-opacity="0" offset="1"/></linearGradient><linearGradient id="linearGradient17891"><stop stop-color="#939393" offset="0"/><stop stop-color="#343434" stop-opacity="0" offset=".50692"/><stop stop-color="#3c3c3c" stop-opacity=".66275" offset="1"/></linearGradient><linearGradient id="linearGradient7994">
<stop stop-color="#ffb96f" stop-opacity=".64706" offset="0"/><stop stop-color="#2e2e2e" stop-opacity=".38384" offset=".49656"/><stop stop-color="#ffa139" stop-opacity=".5101" offset="1"/></linearGradient><radialGradient id="radialGradient5855" cx="498.39" cy="164.25" r="15.437" gradientTransform="matrix(1.2499 6.2039 -7.5512 1.5214 1045.4 -3146.8)" gradientUnits="userSpaceOnUse"><stop stop-color="#939393" offset="0"/><stop stop-color="#343434" stop-opacity="0" offset=".50692"/><stop stop-opacity="0" offset="1"/></radialGradient><linearGradient id="linearGradient7996" x1="613.5" x2="613.65" y1="76.186" y2="90.943" gradientTransform="matrix(.89172 0 0 .89172 66.431 9.0449)" gradientUnits="userSpaceOnUse" xlink:href="#linearGradient7994"/>
<linearGradient id="linearGradient1162" x1="613.5" x2="613.65" y1="76.186" y2="90.943" gradientTransform="matrix(.89172 0 0 .89172 4.8206 37.111)" gradientUnits="userSpaceOnUse" xlink:href="#linearGradient7994"/><linearGradient id="linearGradient17883" x1="427.92" x2="446.93" y1="192.14" y2="218.22" gradientUnits="userSpaceOnUse" xlink:href="#linearGradient17891"/><linearGradient id="linearGradient22546" x1="240.13" x2="232.21" y1="89.984" y2="72.695" gradientTransform="matrix(.43295 0 0 .47156 449.73 112.21)" gradientUnits="userSpaceOnUse" xlink:href="#linearGradient22544"/>
<linearGradient id="linearGradient22546-4" x1="240.13" x2="232.21" y1="89.984" y2="72.695" gradientTransform="matrix(.43295 0 0 .47156 449.73 142.7)" gradientUnits="userSpaceOnUse" xlink:href="#linearGradient22544"/><linearGradient id="linearGradient22689" x1="559.28" x2="542.76" y1="174.26" y2="148.39" gradientUnits="userSpaceOnUse"><stop stop-color="#b6b6b6" offset="0"/><stop stop-color="#b6b6b6" stop-opacity="0" offset="1"/></linearGradient></defs><style type="text/css">
	.st0{fill-rule:evenodd;clip-rule:evenodd;fill:none;stroke:#000000;stroke-miterlimit:3.8637;}
	.st1{fill:none;stroke:#000000;stroke-miterlimit:3.8637;}
	.st2{fill:none;stroke:#231F20;stroke-width:2.0002;stroke-miterlimit:3.8637;}
	.st3{fill:#231F20;}
	.st4{fill-rule:evenodd;clip-rule:evenodd;fill:none;stroke:#231F20;stroke-miterlimit:3.8637;}
	.st5{fill-rule:evenodd;clip-rule:evenodd;fill:none;stroke:#231F20;stroke-width:2.0002;stroke-miterlimit:3.8637;}
	.st6{fill:#EB2227;}
	.st7{fill:#FFFFFF;}
	.st8{fill:#192321;}
	.st9{fill-rule:evenodd;clip-rule:evenodd;fill:none;stroke:#000000;stroke-width:0.2498;stroke-miterlimit:3.8637;}
	.st10{fill:none;}
	.st11{fill-rule:evenodd;clip-rule:evenodd;fill:#ba0c2f;}
	.st12{fill-rule:evenodd;clip-rule:evenodd;fill:none;stroke:#ba0c2f;stroke-width:5.76;stroke-miterlimit:3.8637;}
	.st13{fill:#ba0c2f;}
	.st14{fill:none;stroke:#000000;stroke-width:0.25;stroke-miterlimit:3.8637;}
	.st15{fill-rule:evenodd;clip-rule:evenodd;fill:#079948;}
	.st16{fill:none;stroke:#FFFFFF;stroke-width:0.3322;}
	.st17{fill:none;stroke:#000000;stroke-width:0.3071;}
	.st18{fill-rule:evenodd;clip-rule:evenodd;fill:none;stroke:#000000;stroke-width:1.0001;stroke-miterlimit:3.8637;}
	.st19{fill-rule:evenodd;clip-rule:evenodd;}
	.st20{fill-rule:evenodd;clip-rule:evenodd;fill:none;stroke:#000000;stroke-width:0.8438;stroke-miterlimit:3.8;}
	.st21{fill-rule:evenodd;clip-rule:evenodd;fill:none;stroke:#000000;stroke-width:5.76;stroke-miterlimit:3.8637;}
	.st22{fill-rule:evenodd;clip-rule:evenodd;fill:none;stroke:#000000;stroke-width:0.7649;stroke-miterlimit:3.8637;}
	.st23{fill-rule:evenodd;clip-rule:evenodd;stroke:#000000;stroke-width:9.561200e-002;stroke-miterlimit:3.8637;}
	.st24{fill-rule:evenodd;clip-rule:evenodd;fill:none;stroke:#000000;stroke-width:0.5737;stroke-miterlimit:3.8637;}
	.st25{fill:none;stroke:#000000;stroke-width:1.0001;stroke-miterlimit:3.8637;}
</style><g fill="#000000" font-family="Arial" word-spacing="0px"><text x="519.86041" y="38.10107" font-size="10px" font-weight="bold" letter-spacing="0px" style="line-height:1.25" xml:space="preserve"><tspan x="519.86041" y="38.10107">HI</tspan></text><g font-size="8px" font-weight="bold" letter-spacing="0px">
<text x="539.91205" y="27.726479" style="line-height:1.25" xml:space="preserve"><tspan x="539.91205" y="27.726479">INPUT</tspan></text>
<text x="488.08493" y="31.56945" style="line-height:1.25" xml:space="preserve"><tspan x="488.08493" y="31.56945">4 WIRE</tspan></text>
<text x="483.97653" y="23.883501" style="line-height:1.25" xml:space="preserve"><tspan x="483.97653" y="23.883501">SENSE</tspan></text>
</g><g letter-spacing="0px"><text x="466.4971" y="82.974762" font-size="6.9333px" style="line-height:1.25" xml:space="preserve"><tspan x="466.4971" y="82.974762" fill="#000000" letter-spacing="0px" word-spacing="0px">350V</tspan></text>
<text x="465.2843" y="89.948364" font-size="6.9333px" style="line-height:1.25" xml:space="preserve"><tspan x="465.2843" y="89.948364">PEAK</tspan></text>
<text x="516.44794" y="76.993538" font-size="6px" style="line-height:1.25" xml:space="preserve"><tspan x="516.44794" y="76.993538">CAT II</tspan></text>
<text x="509.4913" y="83.106361" font-size="6px" style="line-height:1.25" xml:space="preserve"><tspan x="509.4913" y="83.106361">300V MAX.</tspan></text></g><g font-size="6.9333px" letter-spacing="0px">
<text x="558.97333" y="83.884354" style="line-height:1.25" xml:space="preserve"><tspan x="558.97333" y="83.884354">1000VDC</tspan></text>
<text x="561.24731" y="90.857964" style="line-height:1.25" xml:space="preserve"><tspan x="561.24731" y="90.857964">750VAC</tspan></text>
<text x="570.0401" y="145.43407" style="line-height:1.25" xml:space="preserve"><tspan x="570.0401" y="145.43407">PEAK</tspan></text>
<text x="571.14209" y="138.36478" style="line-height:1.25" xml:space="preserve"><tspan x="571.14209" y="138.36478">500V</tspan></text>
</g><text x="517.88959" y="138.91527" font-size="10px" font-weight="bold" letter-spacing="0px" style="line-height:1.25" xml:space="preserve"><tspan x="517.88959" y="138.91527">LO</tspan></text><g font-size="6.6667px" font-weight="bold">
<text x="434.09634" y="159.1853" letter-spacing=".28px" style="line-height:1.25" xml:space="preserve"><tspan x="434.09634" y="159.1853">FRONT</tspan></text>
<text x="438.42419" y="177.57872" letter-spacing=".22px" style="line-height:1.25" xml:space="preserve"><tspan x="438.42419" y="177.57872">REAR</tspan></text>
<text x="477.64548" y="190.29182" letter-spacing=".25px" style="line-height:1.25" xml:space="preserve"><tspan x="477.64548" y="190.29182">TERMINALS</tspan></text>
</g><g letter-spacing="0px"><g><text x="542.29724" y="196.97818" font-size="6.9333px" style="line-height:1.25" xml:space="preserve"><tspan x="542.29724" y="196.97818" fill="#000000" font-family="Arial" font-weight="bold">AMPS</tspan></text>
<text x="538.80957" y="203.3996" font-size="6.9333px" style="line-height:1.25" xml:space="preserve"><tspan x="538.80957" y="203.3996" fill="#000000" font-family="Arial" font-weight="bold">3A,250V</tspan></text>
<text x="532.91748" y="209.98315" font-size="6px" style="line-height:1.25" xml:space="preserve"><tspan x="532.91748" y="209.98315" fill="#000000" font-family="Arial">FAST ACTING</tspan></text>
<text x="537.32599" y="216.25647" font-size="6px" style="line-height:1.25" xml:space="preserve"><tspan x="537.32599" y="216.25647" fill="#000000" font-family="Arial">3.0A, 250V</tspan></text>
</g><text x="35.187126" y="230.21329" font-size="8px" font-weight="bold" style="line-height:1.25" xml:space="preserve"><tspan x="35.187126" y="230.21329">POWER</tspan></text>
</g></g><g transform="matrix(.94296 0 0 .94296 -67.845 -226.95)" fill="none" stroke="#000" stroke-miterlimit="3.8637"><circle class="st1" transform="matrix(.9886 -.1506 .1506 .9886 -68.697 24.2)" cx="125.4" cy="465.6" r="10.1"/><path class="st1" d="m125.4 465.6"/></g><g transform="matrix(.61067 0 0 .61067 -35.977 -72.238)" fill="none" stroke="#000" stroke-miterlimit="3.8637"><circle class="st1" transform="matrix(.8725 -.4886 .4886 .8725 -214.69 108.3)" cx="100.2" cy="465.6" r="5.2"/><path class="st1" d="m100.2 465.6"/></g>
<g transform="translate(-74.997 -253.5)" fill="none" stroke="#000" stroke-miterlimit="3.8637"><circle class="st1" cx="573.2" cy="419.1" r="16.7"/><path class="st1" d="m573.2 419.1"/></g><g transform="translate(-74.997 -253.5)"><polygon points="510.1 263.5 512.3 263.5 510.6 270.9 513.9 270.9 512.6 272.6 508.1 272.6"/><polygon points="518.2 269.6 515.3 272.3 514.1 271.7 516.6 268 515.1 263.5 517.1 263.5 517.9 266.3 520.6 264.2 521.4 264.2 519.6 267.8 521.2 272.6 519.1 272.6"/><polygon points="523.3 263.5 525.3 263.5 523.4 272.6 521.4 272.6"/>
<line class="st7" x1="513.3" x2="521.1" y1="272.9" y2="263.1" fill="#fff"/><line class="st16" x1="513.3" x2="521.1" y1="272.9" y2="263.1" fill="none" stroke="#fff" stroke-width=".3322"/><line class="st7" x1="514.2" x2="521.9" y1="272.9" y2="263.1" fill="#fff"/><line class="st16" x1="514.2" x2="521.9" y1="272.9" y2="263.1" fill="none" stroke="#fff" stroke-width=".3322"/><line class="st7" x1="515" x2="522.7" y1="272.9" y2="263.1" fill="#fff"/><g fill="none"><line class="st16" x1="515" x2="522.7" y1="272.9" y2="263.1" stroke="#fff" stroke-width=".3322"/>
<g stroke="#000" stroke-width=".3071"><line class="st17" x1="513.7" x2="522.9" y1="275" y2="263.3"/><line class="st17" x1="512.9" x2="522.1" y1="275" y2="263.3"/><line class="st17" x1="512.1" x2="521.3" y1="275" y2="263.3"/><line class="st17" x1="511.3" x2="520.5" y1="275" y2="263.3"/></g></g></g><g transform="translate(-74.997 -253.5)" clip-rule="evenodd" fill="none" stroke="#000" stroke-miterlimit="3.8637" stroke-width="1.0001"><line class="st18" x1="651" x2="651" y1="329.5" y2="314.9"/><path class="st18" d="m651 315.4c0-2.5-2-4.6-4.5-4.6"/>
<line class="st18" x1="650.9" x2="650.9" y1="346" y2="360.7"/><path class="st18" d="m650.9 360.2c0 2.5-2 4.5-4.5 4.5"/></g><path d="m482.6 30.496c0.1-1.3 1.4-1.8 1.4-2.9s-1.1-2.1-2.5-2.1c-1.3 0-2.5 1-2.5 2.1s1.4 1.6 1.5 2.9l-0.6 0.1-0.8-0.8h-0.2c0 0.1 0.5 1.4 0.7 1.5 0.3 0.3 1.2 0.3 1.4 0 0.1-0.9-0.5-2.3-0.9-3.4 0-0.7 0.1-1.8 1.4-1.9 1.4 0.1 1.5 1.2 1.5 1.9-0.4 1.1-1 2.5-0.9 3.4 0.2 0.3 1.1 0.3 1.4 0 0.2-0.1 0.6-1.4 0.7-1.5h-0.3l-0.8 0.8z"/><g transform="translate(-74.997 -253.5)" clip-rule="evenodd">
<path class="st19" d="m648.7 285.6-1.1 2.9s1.3-0.2 1.3-0.2l-0.4 3.3h0.4l-1 1.3-0.8-1.3h0.4l0.2-2.2-1.7 0.3 1.3-3.9z" fill-rule="evenodd"/><polygon class="st20" points="647.8 282.6 641.2 293.6 654.5 293.6" fill="none" stroke="#000" stroke-miterlimit="3.8" stroke-width=".8438"/></g><g transform="translate(-74.997 -253.5)"><path d="m600 349c0.2 0 0.3 0.1 0.4 0.2s0.2 0.3 0.2 0.4c0 0.2-0.1 0.3-0.2 0.4s-0.3 0.2-0.4 0.2c-0.2 0-0.3-0.1-0.4-0.2s-0.2-0.3-0.2-0.4c0-0.2 0.1-0.3 0.2-0.4s0.3-0.2 0.4-0.2zm-0.2-0.5-0.4-4.4v-0.2c0-0.2 0.1-0.4 0.2-0.5s0.3-0.2 0.5-0.2 0.3 0.1 0.4 0.2 0.2 0.3 0.2 0.4v0.3l-0.4 4.5h-0.5z"/>
<polygon class="st20" points="600 340.3 593.4 351.3 606.7 351.3" clip-rule="evenodd" fill="none" stroke="#000" stroke-miterlimit="3.8" stroke-width=".8438"/></g><circle class="st21" cx="497.9" cy="111.6" r="14.5" clip-rule="evenodd" fill="none" stroke="#000" stroke-miterlimit="3.8637" stroke-width="5.76"/><circle class="st21" cx="551.9" cy="111.6" r="14.5" clip-rule="evenodd" fill="none" stroke="#000" stroke-miterlimit="3.8637" stroke-width="5.76"/><g transform="translate(-74.997 -253.5)"><line class="st22" x1="107.3" x2="122.8" y1="440.5" y2="440.5" clip-rule="evenodd" fill="none" stroke="#000" stroke-miterlimit="3.8637" stroke-width=".7649"/>
<circle class="st23" cx="105.6" cy="440.6" r="1.8"/><circle class="st23" cx="116.4" cy="437.1" r="1.2"/><rect class="st23" x="118.1" y="442.8" width="2.7" height="2.7"/><polygon class="st23" points="122.6 439.2 122.7 441.8 125.2 440.5"/><g clip-rule="evenodd" fill="none" stroke="#000" stroke-miterlimit="3.8637" stroke-width=".5737"><path class="st24" d="m113.2 441.2c-0.2-0.4-0.8-0.6-1.5-0.6"/><path class="st24" d="m115.3 443.5c0.3 0.4 0.6 0.5 1.4 0.5"/><line class="st24" x1="116.7" x2="118.3" y1="444.1" y2="444.1"/><line class="st24" x1="113.2" x2="115.3" y1="441.2" y2="443.6"/></g>
<g clip-rule="evenodd" fill="none" stroke="#000" stroke-miterlimit="3.8637" stroke-width=".5737"><path class="st24" d="m110 439.9c-0.2 0.4-0.8 0.6-1.5 0.6"/><path class="st24" d="m112 437.6c0.3-0.4 0.6-0.5 1.4-0.5"/><line class="st24" x1="113.4" x2="115.7" y1="437.1" y2="437.1"/><line class="st24" x1="109.9" x2="112" y1="439.9" y2="437.6"/></g></g><g transform="translate(-74.997 -253.5)" clip-rule="evenodd" fill="none" stroke="#000" stroke-miterlimit="3.8637" stroke-width="1.0001"><line class="st18" x1="549" x2="549" y1="329.6" y2="314.9"/><path class="st18" d="m549 315.5c0-2.5 2-4.6 4.5-4.6"/>
<line class="st18" x1="549.1" x2="549.1" y1="346" y2="360.7"/><path class="st18" d="m549.1 360.2c0 2.5 2 4.5 4.5 4.5"/></g><g clip-rule="evenodd" fill="none" stroke="#000" stroke-miterlimit="3.8637"><line class="st18" x1="580.9" x2="580.9" y1="131.5" y2="115.8" stroke-width="1.0001"/><path class="st18" d="m580.9 115.8c0-2.5-2-4.6-4.5-4.6" stroke-width="1.0001"/><line class="st0" x1="580.8" x2="580.8" y1="147.7" y2="184"/><line class="st0" x1="575.1" x2="586.6" y1="183.9" y2="183.9"/><line class="st0" x1="577.3" x2="584.4" y1="186.7" y2="186.7"/><line class="st0" x1="578.6" x2="582.9" y1="189.7" y2="189.7"/></g>
<line class="st25" x1="576.7" x2="571.4" y1="111.2" y2="111.2" fill="none" stroke="#000" stroke-miterlimit="3.8637" stroke-width="1.0001"/><line class="st9" x1="552.1" x2="552.1" y1="41.696" y2="72.596" clip-rule="evenodd" fill="none" stroke="#000" stroke-miterlimit="3.8637" stroke-width=".2498"/><g transform="translate(-74.997 -253.5)" clip-rule="evenodd" fill="none" stroke="#000" stroke-miterlimit="3.8637" stroke-width=".2498"><line class="st9" x1="612.7" x2="642.7" y1="311" y2="311"/><line class="st9" x1="627.1" x2="627.1" y1="294.7" y2="325.7"/></g><g clip-rule="evenodd" fill="none" stroke="#000" stroke-miterlimit="3.8637">
<line class="st0" x1="569.7" x2="569.7" y1="111.6" y2="111.6"/><line class="st0" x1="515.7" x2="515.7" y1="111.6" y2="111.6"/><line class="st0" x1="515.7" x2="515.7" y1="57.596" y2="57.596"/><line class="st0" x1="569.7" x2="569.7" y1="57.596" y2="57.596"/><line class="st0" x1="582.1" x2="582.1" y1="13.296" y2="13.296"/><line class="st0" x1="-49.897" x2="-49.897" y1="-62.004" y2="-62.004"/></g><line class="st10" x1="517.4" x2="563.5" y1="182.4" y2="182.4" fill="none"/><g clip-rule="evenodd"><rect class="st11" x="432.7" y=".018204" width="158.88" height="7.5776" fill="#ba0c2f" fill-rule="evenodd" stroke-width=".85462"/>
<circle class="st12" cx="497.9" cy="57.596" r="14.5" fill="none" stroke="#ba0c2f" stroke-miterlimit="3.8637" stroke-width="5.76"/><circle class="st12" cx="551.9" cy="57.596" r="14.5" fill="none" stroke="#ba0c2f" stroke-miterlimit="3.8637" stroke-width="5.76"/></g><g transform="matrix(.99978 0 0 1.0204 -25.233 -121.51)"><g><rect x="41.271" y="270.97" width="45.434" height="24.093" ry="3.7503" fill="#333" stroke="#808080" stroke-width=".52467"/><rect x="44.121" y="274.8" width="39.734" height="16.433" ry="2.5579" fill="#1a1a1a" stroke="#808080" stroke-width=".40522"/><rect x="47.993" y="278.86" width="31.787" height="3.0462" ry="1.0662" fill="#666"/></g></g>
<g transform="translate(-115.58 -25.927)"><circle cx="613.51" cy="83.531" r="13.571" fill="#4d4d4d" stroke-width=".82775"/><circle cx="613.51" cy="83.531" r="11.062" fill="#1a1a1a" stroke-width=".72582"/><circle cx="613.51" cy="83.531" r="6.7945" fill="url(#linearGradient7996)" stroke-width=".55578"/><circle cx="613.51" cy="83.531" r="6.4383" fill="#1a1a1a" stroke-width=".59167"/></g><g transform="translate(-61.611 -25.93)"><circle cx="613.51" cy="83.531" r="13.571" fill="#4d4d4d" stroke-width=".82775"/><circle cx="613.51" cy="83.531" r="11.062" fill="#1a1a1a" stroke-width=".72582"/>
<circle cx="613.51" cy="83.531" r="6.7945" fill="url(#linearGradient7996)" stroke-width=".55578"/><circle cx="613.51" cy="83.531" r="6.4383" fill="#1a1a1a" stroke-width=".59167"/></g><circle cx="551.89" cy="111.6" r="13.571" fill="#4d4d4d" stroke-width=".82775"/><circle cx="551.89" cy="111.6" r="11.062" fill="#1a1a1a" stroke-width=".72582"/><circle cx="551.89" cy="111.6" r="6.7945" fill="url(#linearGradient1162)" stroke-width=".55578"/><circle cx="551.89" cy="111.6" r="6.4383" fill="#1a1a1a" stroke-width=".59167"/><g transform="translate(-115.58 28.097)"><circle cx="613.51" cy="83.531" r="13.571" fill="#4d4d4d" stroke-width=".82775"/>
<circle cx="613.51" cy="83.531" r="11.062" fill="#1a1a1a" stroke-width=".72582"/><circle cx="613.51" cy="83.531" r="6.7945" fill="url(#linearGradient7996)" stroke-width=".55578"/><circle cx="613.51" cy="83.531" r="6.4383" fill="#1a1a1a" stroke-width=".59167"/></g><style type="text/css">
	.st0{fill:#ba0c2f;}
	.st1{fill:#FFFFFF;}
	.st2{fill:#192321;}
</style><style type="text/css">
	.st0{fill-rule:evenodd;clip-rule:evenodd;fill:none;stroke:#000000;stroke-miterlimit:3.8637;}
	.st1{fill:none;stroke:#000000;stroke-miterlimit:3.8637;}
	.st2{fill:none;stroke:#231F20;stroke-width:2.0002;stroke-miterlimit:3.8637;}
	.st3{fill:#231F20;}
	.st4{fill-rule:evenodd;clip-rule:evenodd;fill:none;stroke:#231F20;stroke-miterlimit:3.8637;}
	.st5{fill-rule:evenodd;clip-rule:evenodd;fill:none;stroke:#231F20;stroke-width:2.0002;stroke-miterlimit:3.8637;}
	.st6{fill:#EB2227;}
	.st7{fill:#FFFFFF;}
	.st8{fill:#192321;}
	.st9{fill-rule:evenodd;clip-rule:evenodd;fill:none;stroke:#000000;stroke-width:0.2498;stroke-miterlimit:3.8637;}
	.st10{fill:none;}
	.st11{fill-rule:evenodd;clip-rule:evenodd;fill:#ba0c2f;}
	.st12{fill-rule:evenodd;clip-rule:evenodd;fill:none;stroke:#ba0c2f;stroke-width:5.76;stroke-miterlimit:3.8637;}
	.st13{fill:#ba0c2f;}
	.st14{fill:none;stroke:#000000;stroke-width:0.25;stroke-miterlimit:3.8637;}
	.st15{fill-rule:evenodd;clip-rule:evenodd;fill:#079948;}
	.st16{fill:none;stroke:#FFFFFF;stroke-width:0.3322;}
	.st17{fill:none;stroke:#000000;stroke-width:0.3071;}
	.st18{fill-rule:evenodd;clip-rule:evenodd;fill:none;stroke:#000000;stroke-width:1.0001;stroke-miterlimit:3.8637;}
	.st19{fill-rule:evenodd;clip-rule:evenodd;}
	.st20{fill-rule:evenodd;clip-rule:evenodd;fill:none;stroke:#000000;stroke-width:0.8438;stroke-miterlimit:3.8;}
	.st21{fill-rule:evenodd;clip-rule:evenodd;fill:none;stroke:#000000;stroke-width:5.76;stroke-miterlimit:3.8637;}
	.st22{fill-rule:evenodd;clip-rule:evenodd;fill:none;stroke:#000000;stroke-width:0.7649;stroke-miterlimit:3.8637;}
	.st23{fill-rule:evenodd;clip-rule:evenodd;stroke:#000000;stroke-width:9.561200e-002;stroke-miterlimit:3.8637;}
	.st24{fill-rule:evenodd;clip-rule:evenodd;fill:none;stroke:#000000;stroke-width:0.5737;stroke-miterlimit:3.8637;}
	.st25{fill:none;stroke:#000000;stroke-width:1.0001;stroke-miterlimit:3.8637;}
</style><style type="text/css">
	.st0{fill:#ba0c2f;}
	.st1{fill:#FFFFFF;}
	.st2{fill:#192321;}
</style><style type="text/css">
	.st0{fill:#ba0c2f;}
	.st1{fill:#FFFFFF;}
	.st2{fill:#192321;}
</style><g transform="translate(-.58337 -1.1392)"><text x="13.051936" y="22.143251" fill="#000000" font-family="sans-serif" font-size="5.3333px" letter-spacing="0px" stroke="#000000" stroke-width=".1" word-spacing="0px" style="line-height:1.25" xml:space="preserve"><tspan x="13.051936" y="22.143251" font-family="Arial" stroke="#000000" stroke-width=".1">A Tektronix Company</tspan></text>
<path d="m2.6992 3.3418v13.438h60.588v-13.438zm2.7617 2.668h1.1719v8.1953h-1.1719zm5.8066 0h1.0762l-4.0254 3.3711 3.9316 4.8242h-1.6387l-3.7441-4.6367zm9.5977 0h1.2656v8.1953h-1.2656zm2.5762 0h7.0703v0.70312h-2.9961v7.4922h-1.2656v-7.4922h-2.8086zm8.2402 0h1.3574v3.418h4.2617v-3.418h1.3574v8.1953h-1.3574v-4.1211h-4.2617v4.1211h-1.3574zm9.2715 0h1.2168v7.3047c0 0.14047 0.09391 0.23438 0.23438 0.23438h4.1191v0.65625h-4.6348c-0.51504 0-0.93555-0.42246-0.93555-0.9375zm13.297 0h1.4043l2.5293 3.4648 2.4805-3.4648h0.75l-2.9023 4.0742v4.1211h-1.2656v-3.8867zm-40.033 0.046875h5.291v0.65625h-4.7754c-0.14046 0-0.23438 0.093906-0.23438 0.23438v2.5273h5.0098v0.65625h-5.0098v3.1836c0 0.14047 0.09392 0.23438 0.23438 0.23438h4.7754v0.65625h-5.291c-0.51504 0-0.93555-0.42246-0.93555-0.9375v-6.2734c0-0.51504 0.42051-0.9375 0.93555-0.9375zm33.947 0h5.2891v0.65625h-4.7754c-0.14047 0-0.23438 0.093906-0.23438 0.23438v2.5273h5.0098v0.65625h-5.0098v3.1836c0 0.14047 0.0939 0.23438 0.23438 0.23438h4.7754v0.65625h-5.2891c-0.51504 0-0.9375-0.42246-0.9375-0.9375v-6.2734c0-0.51504 0.42246-0.9375 0.9375-0.9375z" fill="#ba0c2f"/></g>
<g transform="translate(-.58337 -.5318)"><circle cx="498.77" cy="166.1" r="16.024" fill="#1a1a1a" stroke="#4d4d4d" stroke-width="1.1"/><g transform="matrix(.87526 0 0 .87526 115.6 -13.24)"><circle cx="437.78" cy="204.9" r="16.32" fill="#333" stroke-width="1.0082"/><circle cx="437.78" cy="204.9" r="16.208" fill="url(#radialGradient5855)" stroke-width="1.3673"/></g></g><circle class="st1" transform="rotate(-63.724)" cx="95.802" cy="568.19" r="23.401" fill="none" stroke="#000" stroke-miterlimit="3.8637"/><path class="st1" d="m551.91 165.6" fill="none" stroke="#000" stroke-miterlimit="3.8637"/><circle cx="551.87" cy="165.61" r="23.269" fill="#4d4d4d" stroke-width=".98198"/><circle cx="551.91" cy="165.6" r="20.268" fill="#ececec" stroke="#1a1a1a" stroke-width="2"/><circle cx="551.91" cy="165.6" r="18.491" fill="#ececec" stroke="url(#linearGradient22689)"/><circle cx="551.91" cy="165.6" r="11.27" fill="#333" stroke-width=".73949"/><circle cx="551.91" cy="165.6" r="7.4989" fill="#e6e6e6" stroke-width=".6134"/><circle cx="551.91" cy="165.6" r="6.2394" fill="#1a1a1a" stroke-width=".5734"/>
<g fill="#000000" font-family="sans-serif" letter-spacing="0px" word-spacing="0px"><text x="13.783153" y="42.081398" font-size="10.667px" style="line-height:1.25" xml:space="preserve"><tspan x="13.783153" y="51.812923"/></text>
<text x="14.06485" y="28.372169" font-size="8px" style="line-height:1.25" xml:space="preserve"><tspan x="14.06485" y="35.670811"/></text><g font-size="5.3333px">
<text x="13.501456" y="26.963686" style="line-height:1.25" xml:space="preserve"><tspan x="13.501456" y="31.829449"/></text>
<text x="13.970951" y="25.743002" style="line-height:1.25" xml:space="preserve"><tspan x="13.970951" y="30.608765"/></text>
<text x="13.501456" y="24.897913" style="line-height:1.25" xml:space="preserve"><tspan x="13.501456" y="29.763676"/></text>
<text x="12.938064" y="27.620979" style="line-height:1.25" xml:space="preserve"><tspan x="12.938064" y="32.48674"/></text>
<text x="12.844165" y="24.897913" style="line-height:1.25" xml:space="preserve"><tspan x="12.844165" y="29.763676"/></text>
</g><text x="27.210684" y="30.344044" font-size="8px" style="line-height:1.25" xml:space="preserve"><tspan x="27.210684" y="37.642685"/></text>
</g><style type="text/css">
	.st0{fill-rule:evenodd;clip-rule:evenodd;fill:none;stroke:#000000;stroke-miterlimit:3.8637;}
	.st1{fill:none;stroke:#000000;stroke-miterlimit:3.8637;}
	.st2{fill:none;stroke:#231F20;stroke-width:2.0002;stroke-miterlimit:3.8637;}
	.st3{fill:#231F20;}
	.st4{fill-rule:evenodd;clip-rule:evenodd;fill:none;stroke:#231F20;stroke-miterlimit:3.8637;}
	.st5{fill-rule:evenodd;clip-rule:evenodd;fill:none;stroke:#231F20;stroke-width:2.0002;stroke-miterlimit:3.8637;}
	.st6{fill:#EB2227;}
	.st7{fill:#FFFFFF;}
	.st8{fill:#192321;}
	.st9{fill-rule:evenodd;clip-rule:evenodd;fill:none;stroke:#000000;stroke-width:0.2498;stroke-miterlimit:3.8637;}
	.st10{fill:none;}
	.st11{fill-rule:evenodd;clip-rule:evenodd;fill:#ba0c2f;}
	.st12{fill-rule:evenodd;clip-rule:evenodd;fill:none;stroke:#ba0c2f;stroke-width:5.76;stroke-miterlimit:3.8637;}
	.st13{fill:#ba0c2f;}
	.st14{fill:none;stroke:#000000;stroke-width:0.25;stroke-miterlimit:3.8637;}
	.st15{fill-rule:evenodd;clip-rule:evenodd;fill:#079948;}
	.st16{fill:none;stroke:#FFFFFF;stroke-width:0.3322;}
	.st17{fill:none;stroke:#000000;stroke-width:0.3071;}
	.st18{fill-rule:evenodd;clip-rule:evenodd;fill:none;stroke:#000000;stroke-width:1.0001;stroke-miterlimit:3.8637;}
	.st19{fill-rule:evenodd;clip-rule:evenodd;}
	.st20{fill-rule:evenodd;clip-rule:evenodd;fill:none;stroke:#000000;stroke-width:0.8438;stroke-miterlimit:3.8;}
	.st21{fill-rule:evenodd;clip-rule:evenodd;fill:none;stroke:#000000;stroke-width:5.76;stroke-miterlimit:3.8637;}
	.st22{fill-rule:evenodd;clip-rule:evenodd;fill:none;stroke:#000000;stroke-width:0.7649;stroke-miterlimit:3.8637;}
	.st23{fill-rule:evenodd;clip-rule:evenodd;stroke:#000000;stroke-width:9.561200e-002;stroke-miterlimit:3.8637;}
	.st24{fill-rule:evenodd;clip-rule:evenodd;fill:none;stroke:#000000;stroke-width:0.5737;stroke-miterlimit:3.8637;}
	.st25{fill:none;stroke:#000000;stroke-width:1.0001;stroke-miterlimit:3.8637;}
</style><text x="465.80289" y="85.09584" fill="#000000" font-family="Arial" font-size="10px" letter-spacing="0px" word-spacing="0px" style="line-height:1.25" xml:space="preserve"><tspan x="465.80289" y="94.103386"/></text>
<g transform="matrix(.61265 0 0 .61265 -255.19 110.43)"><circle cx="498.77" cy="165.97" r="13.946" fill="#1a1a1a" stroke="#4d4d4d" stroke-width="2.3971"/><g transform="matrix(.59987 0 0 .59987 236.16 43.053)" fill="#666" stroke="url(#linearGradient17883)" stroke-width="1.8649"><circle cx="437.78" cy="204.9" r="16.32"/><circle cx="437.78" cy="204.9" r="16.208"/></g></g><rect x="550.12" y="146" width="3.5714" height="8.644" ry="0" fill="#f9f9f9" stroke="url(#linearGradient22546)" stroke-linecap="round" stroke-linejoin="round" stroke-width=".2"/><rect x="550.12" y="176.49" width="3.5714" height="8.644" ry="0" fill="#f9f9f9" stroke="url(#linearGradient22546-4)" stroke-linecap="round" stroke-linejoin="round" stroke-width=".2"/><g transform="matrix(.61067 0 0 .61067 408.2 -127.72)" fill="none" stroke="#000" stroke-miterlimit="3.8637">
<circle class="st1" transform="matrix(.8725 -.4886 .4886 .8725 -214.69 108.3)" cx="100.2" cy="465.6" r="5.2"/><path class="st1" d="m100.2 465.6"/></g><g transform="matrix(.61067 0 0 .61067 408.2 -109.72)" fill="none" stroke="#000" stroke-miterlimit="3.8637"><circle class="st1" transform="matrix(.8725 -.4886 .4886 .8725 -214.69 108.3)" cx="100.2" cy="465.6" r="5.2"/><path class="st1" d="m100.2 465.6"/></g></svg>
