<?xml version="1.0" standalone="no"?>
 <!DOCTYPE svg PUBLIC "-//W3C//DTD SVG 1.1//EN" 
 "http://www.w3.org/Graphics/SVG/1.1/DTD/svg11.dtd"> 
<svg xmlns="http://www.w3.org/2000/svg" version="1.1" 
    width="6103" height="4000" viewBox="0 0 61030 40000">
<title>SVG Picture created as SparkFun RED-V RedBoard.svg date 2022/03/20 16:41:26 </title>
  <desc>Picture generated by Eeschema-SVG </desc>
<g style="fill:#000000; fill-opacity:1;stroke:#000000; stroke-opacity:1;
stroke-linecap:round; stroke-linejoin:round; "
 transform="translate(0 0) scale(1 1)">
</g>
<g style="fill:#000000; fill-opacity:0.0; 
stroke:#000000; stroke-width:-10; stroke-opacity:1; 
stroke-linecap:round; stroke-linejoin:round;">
</g>
<g style="fill:#840000; fill-opacity:0.0; 
stroke:#840000; stroke-width:-10; stroke-opacity:1; 
stroke-linecap:round; stroke-linejoin:round;">
</g>
<g style="fill:#840000; fill-opacity:0.0; 
stroke:#840000; stroke-width:100; stroke-opacity:1; 
stroke-linecap:round; stroke-linejoin:round;">
</g>
<g style="fill:#840000; fill-opacity:0.0; 
stroke:#840000; stroke-width:60; stroke-opacity:1; 
stroke-linecap:round; stroke-linejoin:round;">
<path d="M57090 36060
L57090 36060
" />
</g>
<g style="fill:#840084; fill-opacity:0.0; 
stroke:#840084; stroke-width:60; stroke-opacity:1; 
stroke-linecap:round; stroke-linejoin:round;">
<path d="M10000 10000
L15000 10000
L15000 11500
L10000 11500
L10000 10000
" />
</g>
<g style="fill:#008484; fill-opacity:0.0; 
stroke:#008484; stroke-width:60; stroke-opacity:1; 
stroke-linecap:round; stroke-linejoin:round;">
</g>
<g style="fill:#000000; fill-opacity:0.0; 
stroke:#000000; stroke-width:60; stroke-opacity:1; 
stroke-linecap:round; stroke-linejoin:round;">
<text x="10000" y="9960"
textLength="13850" font-size="660" lengthAdjust="spacingAndGlyphs"
text-anchor="start" opacity="0">Sheet: SparkFun RED-V RedBoard_1</text>
<path d="M10120 9910
L10190 9930
L10310 9930
L10360 9910
L10380 9880
L10410 9840
L10410 9790
L10380 9740
L10360 9720
L10310 9690
L10220 9670
L10170 9650
L10140 9620
L10120 9570
L10120 9530
L10140 9480
L10170 9460
L10220 9430
L10330 9430
L10410 9460
" />
<path d="M10620 9930
L10620 9430
" />
<path d="M10830 9930
L10830 9670
L10810 9620
L10760 9600
L10690 9600
L10640 9620
L10620 9650
" />
<path d="M11260 9910
L11220 9930
L11120 9930
L11070 9910
L11050 9860
L11050 9670
L11070 9620
L11120 9600
L11220 9600
L11260 9620
L11290 9670
L11290 9720
L11050 9760
" />
<path d="M11690 9910
L11640 9930
L11550 9930
L11500 9910
L11480 9860
L11480 9670
L11500 9620
L11550 9600
L11640 9600
L11690 9620
L11720 9670
L11720 9720
L11480 9760
" />
<path d="M11860 9600
L12050 9600
" />
<path d="M11930 9430
L11930 9860
L11950 9910
L12000 9930
L12050 9930
" />
<path d="M12220 9880
L12240 9910
L12220 9930
L12190 9910
L12220 9880
L12220 9930
" />
<path d="M12220 9620
L12240 9650
L12220 9670
L12190 9650
L12220 9620
L12220 9670
" />
<path d="M12810 9910
L12880 9930
L13000 9930
L13050 9910
L13070 9880
L13100 9840
L13100 9790
L13070 9740
L13050 9720
L13000 9690
L12910 9670
L12860 9650
L12830 9620
L12810 9570
L12810 9530
L12830 9480
L12860 9460
L12910 9430
L13030 9430
L13100 9460
" />
<path d="M13310 9600
L13310 10100
" />
<path d="M13310 9620
L13360 9600
L13450 9600
L13500 9620
L13530 9650
L13550 9690
L13550 9840
L13530 9880
L13500 9910
L13450 9930
L13360 9930
L13310 9910
" />
<path d="M13980 9930
L13980 9670
L13950 9620
L13910 9600
L13810 9600
L13760 9620
" />
<path d="M13980 9910
L13930 9930
L13810 9930
L13760 9910
L13740 9860
L13740 9810
L13760 9760
L13810 9740
L13930 9740
L13980 9720
" />
<path d="M14220 9930
L14220 9600
" />
<path d="M14220 9690
L14240 9650
L14260 9620
L14310 9600
L14360 9600
" />
<path d="M14530 9930
L14530 9430
" />
<path d="M14570 9740
L14720 9930
" />
<path d="M14720 9600
L14530 9790
" />
<path d="M15100 9670
L14930 9670
" />
<path d="M14930 9930
L14930 9430
L15170 9430
" />
<path d="M15570 9600
L15570 9930
" />
<path d="M15360 9600
L15360 9860
L15380 9910
L15430 9930
L15500 9930
L15550 9910
L15570 9880
" />
<path d="M15810 9600
L15810 9930
" />
<path d="M15810 9650
L15830 9620
L15880 9600
L15950 9600
L16000 9620
L16030 9670
L16030 9930
" />
<path d="M16930 9930
L16760 9690
" />
<path d="M16640 9930
L16640 9430
L16830 9430
L16880 9460
L16910 9480
L16930 9530
L16930 9600
L16910 9650
L16880 9670
L16830 9690
L16640 9690
" />
<path d="M17140 9670
L17310 9670
" />
<path d="M17380 9930
L17140 9930
L17140 9430
L17380 9430
" />
<path d="M17600 9930
L17600 9430
L17720 9430
L17790 9460
L17830 9500
L17860 9550
L17880 9650
L17880 9720
L17860 9810
L17830 9860
L17790 9910
L17720 9930
L17600 9930
" />
<path d="M18100 9740
L18480 9740
" />
<path d="M18640 9430
L18810 9930
L18980 9430
" />
<path d="M19810 9930
L19640 9690
" />
<path d="M19520 9930
L19520 9430
L19720 9430
L19760 9460
L19790 9480
L19810 9530
L19810 9600
L19790 9650
L19760 9670
L19720 9690
L19520 9690
" />
<path d="M20220 9910
L20170 9930
L20070 9930
L20020 9910
L20000 9860
L20000 9670
L20020 9620
L20070 9600
L20170 9600
L20220 9620
L20240 9670
L20240 9720
L20000 9760
" />
<path d="M20670 9930
L20670 9430
" />
<path d="M20670 9910
L20620 9930
L20530 9930
L20480 9910
L20450 9880
L20430 9840
L20430 9690
L20450 9650
L20480 9620
L20530 9600
L20620 9600
L20670 9620
" />
<path d="M21070 9670
L21140 9690
L21170 9720
L21190 9760
L21190 9840
L21170 9880
L21140 9910
L21100 9930
L20910 9930
L20910 9430
L21070 9430
L21120 9460
L21140 9480
L21170 9530
L21170 9570
L21140 9620
L21120 9650
L21070 9670
L20910 9670
" />
<path d="M21480 9930
L21430 9910
L21410 9880
L21380 9840
L21380 9690
L21410 9650
L21430 9620
L21480 9600
L21550 9600
L21600 9620
L21620 9650
L21640 9690
L21640 9840
L21620 9880
L21600 9910
L21550 9930
L21480 9930
" />
<path d="M22070 9930
L22070 9670
L22050 9620
L22000 9600
L21910 9600
L21860 9620
" />
<path d="M22070 9910
L22030 9930
L21910 9930
L21860 9910
L21830 9860
L21830 9810
L21860 9760
L21910 9740
L22030 9740
L22070 9720
" />
<path d="M22310 9930
L22310 9600
" />
<path d="M22310 9690
L22330 9650
L22360 9620
L22410 9600
L22450 9600
" />
<path d="M22830 9930
L22830 9430
" />
<path d="M22830 9910
L22790 9930
L22690 9930
L22640 9910
L22620 9880
L22600 9840
L22600 9690
L22620 9650
L22640 9620
L22690 9600
L22790 9600
L22830 9620
" />
<path d="M22950 9980
L23330 9980
" />
<path d="M23720 9930
L23430 9930
" />
<path d="M23570 9930
L23570 9430
L23520 9500
L23480 9550
L23430 9570
" />
</g>
<g style="fill:#848400; fill-opacity:0.0; 
stroke:#848400; stroke-width:60; stroke-opacity:1; 
stroke-linecap:round; stroke-linejoin:round;">
</g>
<g style="fill:#000000; fill-opacity:0.0; 
stroke:#000000; stroke-width:60; stroke-opacity:1; 
stroke-linecap:round; stroke-linejoin:round;">
<text x="10000" y="12040"
textLength="14660" font-size="660" lengthAdjust="spacingAndGlyphs"
text-anchor="start" opacity="0">File: SparkFun_RED-V_RedBoard_1.sch</text>
<path d="M10310 11750
L10140 11750
" />
<path d="M10140 12010
L10140 11510
L10380 11510
" />
<path d="M10570 12010
L10570 11680
" />
<path d="M10570 11510
L10550 11540
L10570 11560
L10600 11540
L10570 11510
L10570 11560
" />
<path d="M10880 12010
L10830 11990
L10810 11940
L10810 11510
" />
<path d="M11260 11990
L11220 12010
L11120 12010
L11070 11990
L11050 11940
L11050 11750
L11070 11700
L11120 11680
L11220 11680
L11260 11700
L11290 11750
L11290 11800
L11050 11840
" />
<path d="M11500 11960
L11530 11990
L11500 12010
L11480 11990
L11500 11960
L11500 12010
" />
<path d="M11500 11700
L11530 11730
L11500 11750
L11480 11730
L11500 11700
L11500 11750
" />
<path d="M12100 11990
L12170 12010
L12290 12010
L12330 11990
L12360 11960
L12380 11920
L12380 11870
L12360 11820
L12330 11800
L12290 11770
L12190 11750
L12140 11730
L12120 11700
L12100 11650
L12100 11610
L12120 11560
L12140 11540
L12190 11510
L12310 11510
L12380 11540
" />
<path d="M12600 11680
L12600 12180
" />
<path d="M12600 11700
L12640 11680
L12740 11680
L12790 11700
L12810 11730
L12830 11770
L12830 11920
L12810 11960
L12790 11990
L12740 12010
L12640 12010
L12600 11990
" />
<path d="M13260 12010
L13260 11750
L13240 11700
L13190 11680
L13100 11680
L13050 11700
" />
<path d="M13260 11990
L13220 12010
L13100 12010
L13050 11990
L13030 11940
L13030 11890
L13050 11840
L13100 11820
L13220 11820
L13260 11800
" />
<path d="M13500 12010
L13500 11680
" />
<path d="M13500 11770
L13530 11730
L13550 11700
L13600 11680
L13640 11680
" />
<path d="M13810 12010
L13810 11510
" />
<path d="M13860 11820
L14000 12010
" />
<path d="M14000 11680
L13810 11870
" />
<path d="M14380 11750
L14220 11750
" />
<path d="M14220 12010
L14220 11510
L14450 11510
" />
<path d="M14860 11680
L14860 12010
" />
<path d="M14640 11680
L14640 11940
L14670 11990
L14720 12010
L14790 12010
L14830 11990
L14860 11960
" />
<path d="M15100 11680
L15100 12010
" />
<path d="M15100 11730
L15120 11700
L15170 11680
L15240 11680
L15290 11700
L15310 11750
L15310 12010
" />
<path d="M15430 12060
L15810 12060
" />
<path d="M16220 12010
L16050 11770
" />
<path d="M15930 12010
L15930 11510
L16120 11510
L16170 11540
L16190 11560
L16220 11610
L16220 11680
L16190 11730
L16170 11750
L16120 11770
L15930 11770
" />
<path d="M16430 11750
L16600 11750
" />
<path d="M16670 12010
L16430 12010
L16430 11510
L16670 11510
" />
<path d="M16880 12010
L16880 11510
L17000 11510
L17070 11540
L17120 11580
L17140 11630
L17170 11730
L17170 11800
L17140 11890
L17120 11940
L17070 11990
L17000 12010
L16880 12010
" />
<path d="M17380 11820
L17760 11820
" />
<path d="M17930 11510
L18100 12010
L18260 11510
" />
<path d="M18310 12060
L18690 12060
" />
<path d="M19100 12010
L18930 11770
" />
<path d="M18810 12010
L18810 11510
L19000 11510
L19050 11540
L19070 11560
L19100 11610
L19100 11680
L19070 11730
L19050 11750
L19000 11770
L18810 11770
" />
<path d="M19500 11990
L19450 12010
L19360 12010
L19310 11990
L19290 11940
L19290 11750
L19310 11700
L19360 11680
L19450 11680
L19500 11700
L19530 11750
L19530 11800
L19290 11840
" />
<path d="M19950 12010
L19950 11510
" />
<path d="M19950 11990
L19910 12010
L19810 12010
L19760 11990
L19740 11960
L19720 11920
L19720 11770
L19740 11730
L19760 11700
L19810 11680
L19910 11680
L19950 11700
" />
<path d="M20360 11750
L20430 11770
L20450 11800
L20480 11840
L20480 11920
L20450 11960
L20430 11990
L20380 12010
L20190 12010
L20190 11510
L20360 11510
L20410 11540
L20430 11560
L20450 11610
L20450 11650
L20430 11700
L20410 11730
L20360 11750
L20190 11750
" />
<path d="M20760 12010
L20720 11990
L20690 11960
L20670 11920
L20670 11770
L20690 11730
L20720 11700
L20760 11680
L20830 11680
L20880 11700
L20910 11730
L20930 11770
L20930 11920
L20910 11960
L20880 11990
L20830 12010
L20760 12010
" />
<path d="M21360 12010
L21360 11750
L21330 11700
L21290 11680
L21190 11680
L21140 11700
" />
<path d="M21360 11990
L21310 12010
L21190 12010
L21140 11990
L21120 11940
L21120 11890
L21140 11840
L21190 11820
L21310 11820
L21360 11800
" />
<path d="M21600 12010
L21600 11680
" />
<path d="M21600 11770
L21620 11730
L21640 11700
L21690 11680
L21740 11680
" />
<path d="M22120 12010
L22120 11510
" />
<path d="M22120 11990
L22070 12010
L21980 12010
L21930 11990
L21910 11960
L21880 11920
L21880 11770
L21910 11730
L21930 11700
L21980 11680
L22070 11680
L22120 11700
" />
<path d="M22240 12060
L22620 12060
" />
<path d="M23000 12010
L22720 12010
" />
<path d="M22860 12010
L22860 11510
L22810 11580
L22760 11630
L22720 11650
" />
<path d="M23220 11960
L23240 11990
L23220 12010
L23190 11990
L23220 11960
L23220 12010
" />
<path d="M23430 11990
L23480 12010
L23570 12010
L23620 11990
L23640 11940
L23640 11920
L23620 11870
L23570 11840
L23500 11840
L23450 11820
L23430 11770
L23430 11750
L23450 11700
L23500 11680
L23570 11680
L23620 11700
" />
<path d="M24070 11990
L24030 12010
L23930 12010
L23880 11990
L23860 11960
L23830 11920
L23830 11770
L23860 11730
L23880 11700
L23930 11680
L24030 11680
L24070 11700
" />
<path d="M24290 12010
L24290 11510
" />
<path d="M24500 12010
L24500 11750
L24480 11700
L24430 11680
L24360 11680
L24310 11700
L24290 11730
" />
</g>
<g style="fill:#840084; fill-opacity:0.0; 
stroke:#840084; stroke-width:60; stroke-opacity:1; 
stroke-linecap:round; stroke-linejoin:round;">
<path d="M30000 10000
L35000 10000
L35000 11500
L30000 11500
L30000 10000
" />
</g>
<g style="fill:#008484; fill-opacity:0.0; 
stroke:#008484; stroke-width:60; stroke-opacity:1; 
stroke-linecap:round; stroke-linejoin:round;">
</g>
<g style="fill:#000000; fill-opacity:0.0; 
stroke:#000000; stroke-width:60; stroke-opacity:1; 
stroke-linecap:round; stroke-linejoin:round;">
<text x="30000" y="9960"
textLength="13850" font-size="660" lengthAdjust="spacingAndGlyphs"
text-anchor="start" opacity="0">Sheet: SparkFun RED-V RedBoard_2</text>
<path d="M30120 9910
L30190 9930
L30310 9930
L30360 9910
L30380 9880
L30410 9840
L30410 9790
L30380 9740
L30360 9720
L30310 9690
L30220 9670
L30170 9650
L30140 9620
L30120 9570
L30120 9530
L30140 9480
L30170 9460
L30220 9430
L30330 9430
L30410 9460
" />
<path d="M30620 9930
L30620 9430
" />
<path d="M30830 9930
L30830 9670
L30810 9620
L30760 9600
L30690 9600
L30640 9620
L30620 9650
" />
<path d="M31260 9910
L31220 9930
L31120 9930
L31070 9910
L31050 9860
L31050 9670
L31070 9620
L31120 9600
L31220 9600
L31260 9620
L31290 9670
L31290 9720
L31050 9760
" />
<path d="M31690 9910
L31640 9930
L31550 9930
L31500 9910
L31480 9860
L31480 9670
L31500 9620
L31550 9600
L31640 9600
L31690 9620
L31720 9670
L31720 9720
L31480 9760
" />
<path d="M31860 9600
L32050 9600
" />
<path d="M31930 9430
L31930 9860
L31950 9910
L32000 9930
L32050 9930
" />
<path d="M32220 9880
L32240 9910
L32220 9930
L32190 9910
L32220 9880
L32220 9930
" />
<path d="M32220 9620
L32240 9650
L32220 9670
L32190 9650
L32220 9620
L32220 9670
" />
<path d="M32810 9910
L32880 9930
L33000 9930
L33050 9910
L33070 9880
L33100 9840
L33100 9790
L33070 9740
L33050 9720
L33000 9690
L32910 9670
L32860 9650
L32830 9620
L32810 9570
L32810 9530
L32830 9480
L32860 9460
L32910 9430
L33030 9430
L33100 9460
" />
<path d="M33310 9600
L33310 10100
" />
<path d="M33310 9620
L33360 9600
L33450 9600
L33500 9620
L33530 9650
L33550 9690
L33550 9840
L33530 9880
L33500 9910
L33450 9930
L33360 9930
L33310 9910
" />
<path d="M33980 9930
L33980 9670
L33950 9620
L33910 9600
L33810 9600
L33760 9620
" />
<path d="M33980 9910
L33930 9930
L33810 9930
L33760 9910
L33740 9860
L33740 9810
L33760 9760
L33810 9740
L33930 9740
L33980 9720
" />
<path d="M34220 9930
L34220 9600
" />
<path d="M34220 9690
L34240 9650
L34260 9620
L34310 9600
L34360 9600
" />
<path d="M34530 9930
L34530 9430
" />
<path d="M34570 9740
L34720 9930
" />
<path d="M34720 9600
L34530 9790
" />
<path d="M35100 9670
L34930 9670
" />
<path d="M34930 9930
L34930 9430
L35170 9430
" />
<path d="M35570 9600
L35570 9930
" />
<path d="M35360 9600
L35360 9860
L35380 9910
L35430 9930
L35500 9930
L35550 9910
L35570 9880
" />
<path d="M35810 9600
L35810 9930
" />
<path d="M35810 9650
L35830 9620
L35880 9600
L35950 9600
L36000 9620
L36030 9670
L36030 9930
" />
<path d="M36930 9930
L36760 9690
" />
<path d="M36640 9930
L36640 9430
L36830 9430
L36880 9460
L36910 9480
L36930 9530
L36930 9600
L36910 9650
L36880 9670
L36830 9690
L36640 9690
" />
<path d="M37140 9670
L37310 9670
" />
<path d="M37380 9930
L37140 9930
L37140 9430
L37380 9430
" />
<path d="M37600 9930
L37600 9430
L37720 9430
L37790 9460
L37830 9500
L37860 9550
L37880 9650
L37880 9720
L37860 9810
L37830 9860
L37790 9910
L37720 9930
L37600 9930
" />
<path d="M38100 9740
L38480 9740
" />
<path d="M38640 9430
L38810 9930
L38980 9430
" />
<path d="M39810 9930
L39640 9690
" />
<path d="M39530 9930
L39530 9430
L39720 9430
L39760 9460
L39790 9480
L39810 9530
L39810 9600
L39790 9650
L39760 9670
L39720 9690
L39530 9690
" />
<path d="M40220 9910
L40170 9930
L40070 9930
L40030 9910
L40000 9860
L40000 9670
L40030 9620
L40070 9600
L40170 9600
L40220 9620
L40240 9670
L40240 9720
L40000 9760
" />
<path d="M40670 9930
L40670 9430
" />
<path d="M40670 9910
L40620 9930
L40530 9930
L40480 9910
L40450 9880
L40430 9840
L40430 9690
L40450 9650
L40480 9620
L40530 9600
L40620 9600
L40670 9620
" />
<path d="M41070 9670
L41140 9690
L41170 9720
L41190 9760
L41190 9840
L41170 9880
L41140 9910
L41100 9930
L40910 9930
L40910 9430
L41070 9430
L41120 9460
L41140 9480
L41170 9530
L41170 9570
L41140 9620
L41120 9650
L41070 9670
L40910 9670
" />
<path d="M41480 9930
L41430 9910
L41410 9880
L41380 9840
L41380 9690
L41410 9650
L41430 9620
L41480 9600
L41550 9600
L41600 9620
L41620 9650
L41640 9690
L41640 9840
L41620 9880
L41600 9910
L41550 9930
L41480 9930
" />
<path d="M42070 9930
L42070 9670
L42050 9620
L42000 9600
L41910 9600
L41860 9620
" />
<path d="M42070 9910
L42030 9930
L41910 9930
L41860 9910
L41830 9860
L41830 9810
L41860 9760
L41910 9740
L42030 9740
L42070 9720
" />
<path d="M42310 9930
L42310 9600
" />
<path d="M42310 9690
L42330 9650
L42360 9620
L42410 9600
L42450 9600
" />
<path d="M42830 9930
L42830 9430
" />
<path d="M42830 9910
L42790 9930
L42690 9930
L42640 9910
L42620 9880
L42600 9840
L42600 9690
L42620 9650
L42640 9620
L42690 9600
L42790 9600
L42830 9620
" />
<path d="M42950 9980
L43330 9980
" />
<path d="M43430 9480
L43450 9460
L43500 9430
L43620 9430
L43670 9460
L43690 9480
L43720 9530
L43720 9570
L43690 9650
L43410 9930
L43720 9930
" />
</g>
<g style="fill:#848400; fill-opacity:0.0; 
stroke:#848400; stroke-width:60; stroke-opacity:1; 
stroke-linecap:round; stroke-linejoin:round;">
</g>
<g style="fill:#000000; fill-opacity:0.0; 
stroke:#000000; stroke-width:60; stroke-opacity:1; 
stroke-linecap:round; stroke-linejoin:round;">
<text x="30000" y="12040"
textLength="14660" font-size="660" lengthAdjust="spacingAndGlyphs"
text-anchor="start" opacity="0">File: SparkFun_RED-V_RedBoard_2.sch</text>
<path d="M30310 11750
L30140 11750
" />
<path d="M30140 12010
L30140 11510
L30380 11510
" />
<path d="M30570 12010
L30570 11680
" />
<path d="M30570 11510
L30550 11540
L30570 11560
L30600 11540
L30570 11510
L30570 11560
" />
<path d="M30880 12010
L30830 11990
L30810 11940
L30810 11510
" />
<path d="M31260 11990
L31220 12010
L31120 12010
L31070 11990
L31050 11940
L31050 11750
L31070 11700
L31120 11680
L31220 11680
L31260 11700
L31290 11750
L31290 11800
L31050 11840
" />
<path d="M31500 11960
L31530 11990
L31500 12010
L31480 11990
L31500 11960
L31500 12010
" />
<path d="M31500 11700
L31530 11730
L31500 11750
L31480 11730
L31500 11700
L31500 11750
" />
<path d="M32100 11990
L32170 12010
L32290 12010
L32330 11990
L32360 11960
L32380 11920
L32380 11870
L32360 11820
L32330 11800
L32290 11770
L32190 11750
L32140 11730
L32120 11700
L32100 11650
L32100 11610
L32120 11560
L32140 11540
L32190 11510
L32310 11510
L32380 11540
" />
<path d="M32600 11680
L32600 12180
" />
<path d="M32600 11700
L32640 11680
L32740 11680
L32790 11700
L32810 11730
L32830 11770
L32830 11920
L32810 11960
L32790 11990
L32740 12010
L32640 12010
L32600 11990
" />
<path d="M33260 12010
L33260 11750
L33240 11700
L33190 11680
L33100 11680
L33050 11700
" />
<path d="M33260 11990
L33220 12010
L33100 12010
L33050 11990
L33030 11940
L33030 11890
L33050 11840
L33100 11820
L33220 11820
L33260 11800
" />
<path d="M33500 12010
L33500 11680
" />
<path d="M33500 11770
L33530 11730
L33550 11700
L33600 11680
L33640 11680
" />
<path d="M33810 12010
L33810 11510
" />
<path d="M33860 11820
L34000 12010
" />
<path d="M34000 11680
L33810 11870
" />
<path d="M34380 11750
L34220 11750
" />
<path d="M34220 12010
L34220 11510
L34450 11510
" />
<path d="M34860 11680
L34860 12010
" />
<path d="M34640 11680
L34640 11940
L34670 11990
L34720 12010
L34790 12010
L34830 11990
L34860 11960
" />
<path d="M35100 11680
L35100 12010
" />
<path d="M35100 11730
L35120 11700
L35170 11680
L35240 11680
L35290 11700
L35310 11750
L35310 12010
" />
<path d="M35430 12060
L35810 12060
" />
<path d="M36220 12010
L36050 11770
" />
<path d="M35930 12010
L35930 11510
L36120 11510
L36170 11540
L36190 11560
L36220 11610
L36220 11680
L36190 11730
L36170 11750
L36120 11770
L35930 11770
" />
<path d="M36430 11750
L36600 11750
" />
<path d="M36670 12010
L36430 12010
L36430 11510
L36670 11510
" />
<path d="M36880 12010
L36880 11510
L37000 11510
L37070 11540
L37120 11580
L37140 11630
L37170 11730
L37170 11800
L37140 11890
L37120 11940
L37070 11990
L37000 12010
L36880 12010
" />
<path d="M37380 11820
L37760 11820
" />
<path d="M37930 11510
L38100 12010
L38260 11510
" />
<path d="M38310 12060
L38690 12060
" />
<path d="M39100 12010
L38930 11770
" />
<path d="M38810 12010
L38810 11510
L39000 11510
L39050 11540
L39070 11560
L39100 11610
L39100 11680
L39070 11730
L39050 11750
L39000 11770
L38810 11770
" />
<path d="M39500 11990
L39450 12010
L39360 12010
L39310 11990
L39290 11940
L39290 11750
L39310 11700
L39360 11680
L39450 11680
L39500 11700
L39530 11750
L39530 11800
L39290 11840
" />
<path d="M39950 12010
L39950 11510
" />
<path d="M39950 11990
L39910 12010
L39810 12010
L39760 11990
L39740 11960
L39720 11920
L39720 11770
L39740 11730
L39760 11700
L39810 11680
L39910 11680
L39950 11700
" />
<path d="M40360 11750
L40430 11770
L40450 11800
L40480 11840
L40480 11920
L40450 11960
L40430 11990
L40380 12010
L40190 12010
L40190 11510
L40360 11510
L40410 11540
L40430 11560
L40450 11610
L40450 11650
L40430 11700
L40410 11730
L40360 11750
L40190 11750
" />
<path d="M40760 12010
L40720 11990
L40690 11960
L40670 11920
L40670 11770
L40690 11730
L40720 11700
L40760 11680
L40830 11680
L40880 11700
L40910 11730
L40930 11770
L40930 11920
L40910 11960
L40880 11990
L40830 12010
L40760 12010
" />
<path d="M41360 12010
L41360 11750
L41330 11700
L41290 11680
L41190 11680
L41140 11700
" />
<path d="M41360 11990
L41310 12010
L41190 12010
L41140 11990
L41120 11940
L41120 11890
L41140 11840
L41190 11820
L41310 11820
L41360 11800
" />
<path d="M41600 12010
L41600 11680
" />
<path d="M41600 11770
L41620 11730
L41640 11700
L41690 11680
L41740 11680
" />
<path d="M42120 12010
L42120 11510
" />
<path d="M42120 11990
L42070 12010
L41980 12010
L41930 11990
L41910 11960
L41880 11920
L41880 11770
L41910 11730
L41930 11700
L41980 11680
L42070 11680
L42120 11700
" />
<path d="M42240 12060
L42620 12060
" />
<path d="M42720 11560
L42740 11540
L42790 11510
L42910 11510
L42950 11540
L42980 11560
L43000 11610
L43000 11650
L42980 11730
L42690 12010
L43000 12010
" />
<path d="M43220 11960
L43240 11990
L43220 12010
L43190 11990
L43220 11960
L43220 12010
" />
<path d="M43430 11990
L43480 12010
L43570 12010
L43620 11990
L43640 11940
L43640 11920
L43620 11870
L43570 11840
L43500 11840
L43450 11820
L43430 11770
L43430 11750
L43450 11700
L43500 11680
L43570 11680
L43620 11700
" />
<path d="M44070 11990
L44030 12010
L43930 12010
L43880 11990
L43860 11960
L43830 11920
L43830 11770
L43860 11730
L43880 11700
L43930 11680
L44030 11680
L44070 11700
" />
<path d="M44290 12010
L44290 11510
" />
<path d="M44500 12010
L44500 11750
L44480 11700
L44430 11680
L44360 11680
L44310 11700
L44290 11730
" />
</g>
<g style="fill:#840084; fill-opacity:0.0; 
stroke:#840084; stroke-width:60; stroke-opacity:1; 
stroke-linecap:round; stroke-linejoin:round;">
</g> 
</svg>
