<?xml version="1.0" standalone="no"?>
 <!DOCTYPE svg PUBLIC "-//W3C//DTD SVG 1.1//EN" 
 "http://www.w3.org/Graphics/SVG/1.1/DTD/svg11.dtd"> 
<svg xmlns="http://www.w3.org/2000/svg" version="1.1" 
    width="4685" height="4000" viewBox="0 0 46850 40000">
<title>SVG Picture created as DUE_V02g.svg date 2022/03/20 15:02:39 </title>
  <desc>Picture generated by Eeschema-SVG </desc>
<g style="fill:#000000; fill-opacity:1;stroke:#000000; stroke-opacity:1;
stroke-linecap:round; stroke-linejoin:round; "
 transform="translate(0 0) scale(1 1)">
</g>
<g style="fill:#000000; fill-opacity:0.0; 
stroke:#000000; stroke-width:-10; stroke-opacity:1; 
stroke-linecap:round; stroke-linejoin:round;">
</g>
<g style="fill:#840000; fill-opacity:0.0; 
stroke:#840000; stroke-width:-10; stroke-opacity:1; 
stroke-linecap:round; stroke-linejoin:round;">
</g>
<g style="fill:#840000; fill-opacity:0.0; 
stroke:#840000; stroke-width:100; stroke-opacity:1; 
stroke-linecap:round; stroke-linejoin:round;">
</g>
<g style="fill:#840000; fill-opacity:0.0; 
stroke:#840000; stroke-width:60; stroke-opacity:1; 
stroke-linecap:round; stroke-linejoin:round;">
<path d="M42910 36060
L42910 36060
" />
</g>
<g style="fill:#840084; fill-opacity:0.0; 
stroke:#840084; stroke-width:60; stroke-opacity:1; 
stroke-linecap:round; stroke-linejoin:round;">
<path d="M10000 10000
L15000 10000
L15000 11500
L10000 11500
L10000 10000
" />
</g>
<g style="fill:#008484; fill-opacity:0.0; 
stroke:#008484; stroke-width:60; stroke-opacity:1; 
stroke-linecap:round; stroke-linejoin:round;">
</g>
<g style="fill:#000000; fill-opacity:0.0; 
stroke:#000000; stroke-width:60; stroke-opacity:1; 
stroke-linecap:round; stroke-linejoin:round;">
<text x="10000" y="9960"
textLength="7260" font-size="660" lengthAdjust="spacingAndGlyphs"
text-anchor="start" opacity="0">Sheet: DUE_V02g_1</text>
<path d="M10120 9910
L10190 9930
L10310 9930
L10360 9910
L10380 9880
L10410 9840
L10410 9790
L10380 9740
L10360 9720
L10310 9690
L10220 9670
L10170 9650
L10140 9620
L10120 9570
L10120 9530
L10140 9480
L10170 9460
L10220 9430
L10330 9430
L10410 9460
" />
<path d="M10620 9930
L10620 9430
" />
<path d="M10830 9930
L10830 9670
L10810 9620
L10760 9600
L10690 9600
L10640 9620
L10620 9650
" />
<path d="M11260 9910
L11220 9930
L11120 9930
L11070 9910
L11050 9860
L11050 9670
L11070 9620
L11120 9600
L11220 9600
L11260 9620
L11290 9670
L11290 9720
L11050 9760
" />
<path d="M11690 9910
L11640 9930
L11550 9930
L11500 9910
L11480 9860
L11480 9670
L11500 9620
L11550 9600
L11640 9600
L11690 9620
L11720 9670
L11720 9720
L11480 9760
" />
<path d="M11860 9600
L12050 9600
" />
<path d="M11930 9430
L11930 9860
L11950 9910
L12000 9930
L12050 9930
" />
<path d="M12220 9880
L12240 9910
L12220 9930
L12190 9910
L12220 9880
L12220 9930
" />
<path d="M12220 9620
L12240 9650
L12220 9670
L12190 9650
L12220 9620
L12220 9670
" />
<path d="M12830 9930
L12830 9430
L12950 9430
L13030 9460
L13070 9500
L13100 9550
L13120 9650
L13120 9720
L13100 9810
L13070 9860
L13030 9910
L12950 9930
L12830 9930
" />
<path d="M13330 9430
L13330 9840
L13360 9880
L13380 9910
L13430 9930
L13530 9930
L13570 9910
L13600 9880
L13620 9840
L13620 9430
" />
<path d="M13860 9670
L14030 9670
" />
<path d="M14100 9930
L13860 9930
L13860 9430
L14100 9430
" />
<path d="M14190 9980
L14570 9980
" />
<path d="M14620 9430
L14790 9930
L14950 9430
" />
<path d="M15220 9430
L15260 9430
L15310 9460
L15330 9480
L15360 9530
L15380 9620
L15380 9740
L15360 9840
L15330 9880
L15310 9910
L15260 9930
L15220 9930
L15170 9910
L15140 9880
L15120 9840
L15100 9740
L15100 9620
L15120 9530
L15140 9480
L15170 9460
L15220 9430
" />
<path d="M15570 9480
L15600 9460
L15640 9430
L15760 9430
L15810 9460
L15830 9480
L15860 9530
L15860 9570
L15830 9650
L15550 9930
L15860 9930
" />
<path d="M16290 9600
L16290 10000
L16260 10050
L16240 10070
L16190 10100
L16120 10100
L16070 10070
" />
<path d="M16290 9910
L16240 9930
L16140 9930
L16100 9910
L16070 9880
L16050 9840
L16050 9690
L16070 9650
L16100 9620
L16140 9600
L16240 9600
L16290 9620
" />
<path d="M16410 9980
L16790 9980
" />
<path d="M17170 9930
L16880 9930
" />
<path d="M17020 9930
L17020 9430
L16980 9500
L16930 9550
L16880 9570
" />
</g>
<g style="fill:#848400; fill-opacity:0.0; 
stroke:#848400; stroke-width:60; stroke-opacity:1; 
stroke-linecap:round; stroke-linejoin:round;">
</g>
<g style="fill:#000000; fill-opacity:0.0; 
stroke:#000000; stroke-width:60; stroke-opacity:1; 
stroke-linecap:round; stroke-linejoin:round;">
<text x="10000" y="12040"
textLength="8110" font-size="660" lengthAdjust="spacingAndGlyphs"
text-anchor="start" opacity="0">File: DUE_V02g_1.sch</text>
<path d="M10310 11750
L10140 11750
" />
<path d="M10140 12010
L10140 11510
L10380 11510
" />
<path d="M10570 12010
L10570 11680
" />
<path d="M10570 11510
L10550 11540
L10570 11560
L10600 11540
L10570 11510
L10570 11560
" />
<path d="M10880 12010
L10830 11990
L10810 11940
L10810 11510
" />
<path d="M11260 11990
L11220 12010
L11120 12010
L11070 11990
L11050 11940
L11050 11750
L11070 11700
L11120 11680
L11220 11680
L11260 11700
L11290 11750
L11290 11800
L11050 11840
" />
<path d="M11500 11960
L11530 11990
L11500 12010
L11480 11990
L11500 11960
L11500 12010
" />
<path d="M11500 11700
L11530 11730
L11500 11750
L11480 11730
L11500 11700
L11500 11750
" />
<path d="M12120 12010
L12120 11510
L12240 11510
L12310 11540
L12360 11580
L12380 11630
L12410 11730
L12410 11800
L12380 11890
L12360 11940
L12310 11990
L12240 12010
L12120 12010
" />
<path d="M12620 11510
L12620 11920
L12640 11960
L12670 11990
L12720 12010
L12810 12010
L12860 11990
L12880 11960
L12910 11920
L12910 11510
" />
<path d="M13140 11750
L13310 11750
" />
<path d="M13380 12010
L13140 12010
L13140 11510
L13380 11510
" />
<path d="M13480 12060
L13860 12060
" />
<path d="M13910 11510
L14070 12010
L14240 11510
" />
<path d="M14500 11510
L14550 11510
L14600 11540
L14620 11560
L14640 11610
L14670 11700
L14670 11820
L14640 11920
L14620 11960
L14600 11990
L14550 12010
L14500 12010
L14450 11990
L14430 11960
L14410 11920
L14380 11820
L14380 11700
L14410 11610
L14430 11560
L14450 11540
L14500 11510
" />
<path d="M14860 11560
L14880 11540
L14930 11510
L15050 11510
L15100 11540
L15120 11560
L15140 11610
L15140 11650
L15120 11730
L14830 12010
L15140 12010
" />
<path d="M15570 11680
L15570 12080
L15550 12130
L15530 12150
L15480 12180
L15410 12180
L15360 12150
" />
<path d="M15570 11990
L15530 12010
L15430 12010
L15380 11990
L15360 11960
L15330 11920
L15330 11770
L15360 11730
L15380 11700
L15430 11680
L15530 11680
L15570 11700
" />
<path d="M15690 12060
L16070 12060
" />
<path d="M16450 12010
L16170 12010
" />
<path d="M16310 12010
L16310 11510
L16260 11580
L16220 11630
L16170 11650
" />
<path d="M16670 11960
L16690 11990
L16670 12010
L16640 11990
L16670 11960
L16670 12010
" />
<path d="M16880 11990
L16930 12010
L17030 12010
L17070 11990
L17100 11940
L17100 11920
L17070 11870
L17030 11840
L16950 11840
L16910 11820
L16880 11770
L16880 11750
L16910 11700
L16950 11680
L17030 11680
L17070 11700
" />
<path d="M17530 11990
L17480 12010
L17380 12010
L17330 11990
L17310 11960
L17290 11920
L17290 11770
L17310 11730
L17330 11700
L17380 11680
L17480 11680
L17530 11700
" />
<path d="M17740 12010
L17740 11510
" />
<path d="M17950 12010
L17950 11750
L17930 11700
L17880 11680
L17810 11680
L17760 11700
L17740 11730
" />
</g>
<g style="fill:#840084; fill-opacity:0.0; 
stroke:#840084; stroke-width:60; stroke-opacity:1; 
stroke-linecap:round; stroke-linejoin:round;">
<path d="M30000 10000
L35000 10000
L35000 11500
L30000 11500
L30000 10000
" />
</g>
<g style="fill:#008484; fill-opacity:0.0; 
stroke:#008484; stroke-width:60; stroke-opacity:1; 
stroke-linecap:round; stroke-linejoin:round;">
</g>
<g style="fill:#000000; fill-opacity:0.0; 
stroke:#000000; stroke-width:60; stroke-opacity:1; 
stroke-linecap:round; stroke-linejoin:round;">
<text x="30000" y="9960"
textLength="7300" font-size="660" lengthAdjust="spacingAndGlyphs"
text-anchor="start" opacity="0">Sheet: DUE_V02g_2</text>
<path d="M30120 9910
L30190 9930
L30310 9930
L30360 9910
L30380 9880
L30410 9840
L30410 9790
L30380 9740
L30360 9720
L30310 9690
L30220 9670
L30170 9650
L30140 9620
L30120 9570
L30120 9530
L30140 9480
L30170 9460
L30220 9430
L30330 9430
L30410 9460
" />
<path d="M30620 9930
L30620 9430
" />
<path d="M30830 9930
L30830 9670
L30810 9620
L30760 9600
L30690 9600
L30640 9620
L30620 9650
" />
<path d="M31260 9910
L31220 9930
L31120 9930
L31070 9910
L31050 9860
L31050 9670
L31070 9620
L31120 9600
L31220 9600
L31260 9620
L31290 9670
L31290 9720
L31050 9760
" />
<path d="M31690 9910
L31640 9930
L31550 9930
L31500 9910
L31480 9860
L31480 9670
L31500 9620
L31550 9600
L31640 9600
L31690 9620
L31720 9670
L31720 9720
L31480 9760
" />
<path d="M31860 9600
L32050 9600
" />
<path d="M31930 9430
L31930 9860
L31950 9910
L32000 9930
L32050 9930
" />
<path d="M32220 9880
L32240 9910
L32220 9930
L32190 9910
L32220 9880
L32220 9930
" />
<path d="M32220 9620
L32240 9650
L32220 9670
L32190 9650
L32220 9620
L32220 9670
" />
<path d="M32830 9930
L32830 9430
L32950 9430
L33030 9460
L33070 9500
L33100 9550
L33120 9650
L33120 9720
L33100 9810
L33070 9860
L33030 9910
L32950 9930
L32830 9930
" />
<path d="M33330 9430
L33330 9840
L33360 9880
L33380 9910
L33430 9930
L33530 9930
L33570 9910
L33600 9880
L33620 9840
L33620 9430
" />
<path d="M33860 9670
L34030 9670
" />
<path d="M34100 9930
L33860 9930
L33860 9430
L34100 9430
" />
<path d="M34190 9980
L34570 9980
" />
<path d="M34620 9430
L34790 9930
L34950 9430
" />
<path d="M35220 9430
L35260 9430
L35310 9460
L35330 9480
L35360 9530
L35380 9620
L35380 9740
L35360 9840
L35330 9880
L35310 9910
L35260 9930
L35220 9930
L35170 9910
L35140 9880
L35120 9840
L35100 9740
L35100 9620
L35120 9530
L35140 9480
L35170 9460
L35220 9430
" />
<path d="M35570 9480
L35600 9460
L35640 9430
L35760 9430
L35810 9460
L35830 9480
L35860 9530
L35860 9570
L35830 9650
L35550 9930
L35860 9930
" />
<path d="M36290 9600
L36290 10000
L36260 10050
L36240 10070
L36190 10100
L36120 10100
L36070 10070
" />
<path d="M36290 9910
L36240 9930
L36140 9930
L36100 9910
L36070 9880
L36050 9840
L36050 9690
L36070 9650
L36100 9620
L36140 9600
L36240 9600
L36290 9620
" />
<path d="M36410 9980
L36790 9980
" />
<path d="M36880 9480
L36910 9460
L36950 9430
L37070 9430
L37120 9460
L37140 9480
L37170 9530
L37170 9570
L37140 9650
L36860 9930
L37170 9930
" />
</g>
<g style="fill:#848400; fill-opacity:0.0; 
stroke:#848400; stroke-width:60; stroke-opacity:1; 
stroke-linecap:round; stroke-linejoin:round;">
</g>
<g style="fill:#000000; fill-opacity:0.0; 
stroke:#000000; stroke-width:60; stroke-opacity:1; 
stroke-linecap:round; stroke-linejoin:round;">
<text x="30000" y="12040"
textLength="8110" font-size="660" lengthAdjust="spacingAndGlyphs"
text-anchor="start" opacity="0">File: DUE_V02g_2.sch</text>
<path d="M30310 11750
L30140 11750
" />
<path d="M30140 12010
L30140 11510
L30380 11510
" />
<path d="M30570 12010
L30570 11680
" />
<path d="M30570 11510
L30550 11540
L30570 11560
L30600 11540
L30570 11510
L30570 11560
" />
<path d="M30880 12010
L30830 11990
L30810 11940
L30810 11510
" />
<path d="M31260 11990
L31220 12010
L31120 12010
L31070 11990
L31050 11940
L31050 11750
L31070 11700
L31120 11680
L31220 11680
L31260 11700
L31290 11750
L31290 11800
L31050 11840
" />
<path d="M31500 11960
L31530 11990
L31500 12010
L31480 11990
L31500 11960
L31500 12010
" />
<path d="M31500 11700
L31530 11730
L31500 11750
L31480 11730
L31500 11700
L31500 11750
" />
<path d="M32120 12010
L32120 11510
L32240 11510
L32310 11540
L32360 11580
L32380 11630
L32410 11730
L32410 11800
L32380 11890
L32360 11940
L32310 11990
L32240 12010
L32120 12010
" />
<path d="M32620 11510
L32620 11920
L32640 11960
L32670 11990
L32720 12010
L32810 12010
L32860 11990
L32880 11960
L32910 11920
L32910 11510
" />
<path d="M33140 11750
L33310 11750
" />
<path d="M33380 12010
L33140 12010
L33140 11510
L33380 11510
" />
<path d="M33480 12060
L33860 12060
" />
<path d="M33910 11510
L34070 12010
L34240 11510
" />
<path d="M34500 11510
L34550 11510
L34600 11540
L34620 11560
L34640 11610
L34670 11700
L34670 11820
L34640 11920
L34620 11960
L34600 11990
L34550 12010
L34500 12010
L34450 11990
L34430 11960
L34410 11920
L34380 11820
L34380 11700
L34410 11610
L34430 11560
L34450 11540
L34500 11510
" />
<path d="M34860 11560
L34880 11540
L34930 11510
L35050 11510
L35100 11540
L35120 11560
L35140 11610
L35140 11650
L35120 11730
L34830 12010
L35140 12010
" />
<path d="M35570 11680
L35570 12080
L35550 12130
L35530 12150
L35480 12180
L35410 12180
L35360 12150
" />
<path d="M35570 11990
L35530 12010
L35430 12010
L35380 11990
L35360 11960
L35330 11920
L35330 11770
L35360 11730
L35380 11700
L35430 11680
L35530 11680
L35570 11700
" />
<path d="M35690 12060
L36070 12060
" />
<path d="M36170 11560
L36190 11540
L36240 11510
L36360 11510
L36410 11540
L36430 11560
L36450 11610
L36450 11650
L36430 11730
L36140 12010
L36450 12010
" />
<path d="M36670 11960
L36690 11990
L36670 12010
L36640 11990
L36670 11960
L36670 12010
" />
<path d="M36880 11990
L36930 12010
L37030 12010
L37070 11990
L37100 11940
L37100 11920
L37070 11870
L37030 11840
L36950 11840
L36910 11820
L36880 11770
L36880 11750
L36910 11700
L36950 11680
L37030 11680
L37070 11700
" />
<path d="M37530 11990
L37480 12010
L37380 12010
L37330 11990
L37310 11960
L37290 11920
L37290 11770
L37310 11730
L37330 11700
L37380 11680
L37480 11680
L37530 11700
" />
<path d="M37740 12010
L37740 11510
" />
<path d="M37950 12010
L37950 11750
L37930 11700
L37880 11680
L37810 11680
L37760 11700
L37740 11730
" />
</g>
<g style="fill:#840084; fill-opacity:0.0; 
stroke:#840084; stroke-width:60; stroke-opacity:1; 
stroke-linecap:round; stroke-linejoin:round;">
</g> 
</svg>
